<svg version="1.1" xmlns="http://www.w3.org/2000/svg" xmlns:xlink="http://www.w3.org/1999/xlink" width="512px" height="512px" viewBox="0,0,256,256"><g fill="none" fill-rule="nonzero" stroke="none" stroke-width="1" stroke-linecap="butt" stroke-linejoin="miter" stroke-miterlimit="10" stroke-dasharray="" stroke-dashoffset="0" font-family="none" font-weight="none" font-size="none" text-anchor="none" style="mix-blend-mode: normal"><g transform="scale(0.5,0.5)"><path d="M466,106v350c0,16.57 -13.43,30 -30,30h-280c-16.57,0 -30,-13.43 -30,-30c0,-12.782 0,-379.414 0,-400c0,-16.57 13.43,-30 30,-30h230l20,60z" fill="#fafcf6"></path><path d="M126,186v60h-50c-16.56,0 -30,-13.439 -30,-30c0,-16.57 13.43,-30 30,-30z" fill="#ffffff"></path><path d="M416,271v120c0,13.81 -11.19,25 -25,25c-9.825,0 -285.311,0 -300.67,0c-24.48,0 -44.33,-19.85 -44.33,-44.33v-155.67c0,16.56 13.439,30 30,30c15.132,0 299.747,0 315,0c13.81,0 25,11.19 25,25z" fill="#ffffff"></path><path d="M466,106h-80v-80z" fill="#ffffff"></path><path d="M473.071,98.929l-80,-80c-1.854,-1.854 -4.413,-2.929 -7.071,-2.929h-230c-22.056,0 -40,17.944 -40,40v120h-40c-22.056,0 -40,17.944 -40,40v155.67c0,29.958 24.372,54.33 54.33,54.33h25.67v30c0,22.056 17.944,40 40,40h280c22.056,0 40,-17.944 40,-40v-350c0,-2.666 -1.078,-5.223 -2.929,-7.071zM396,50.143l45.858,45.857h-45.858zM76,196h40v40h-40c-11.045,0 -20,-8.954 -20,-20c0,-11.028 8.972,-20 20,-20zM90.33,406c-18.93,0 -34.33,-15.4 -34.33,-34.33v-121.025c6.016,3.488 12.864,5.355 20,5.355c15.132,0 299.747,0 315,0c8.272,0 15,6.729 15,15v120c0,8.272 -6.728,15 -15,15zM456,456c0,11.028 -8.972,20 -20,20h-280c-11.028,0 -20,-8.972 -20,-20v-30h255c19.299,0 35,-15.701 35,-35v-120c0,-19.299 -15.701,-35 -35,-35h-255v-180c0,-11.028 8.972,-20 20,-20h220v70c0,5.523 4.478,10 10,10h70z" fill="#26bf08"></path><path d="M176,106h80c5.522,0 10,-4.477 10,-10c0,-5.523 -4.478,-10 -10,-10h-80c-5.523,0 -10,4.477 -10,10c0,5.523 4.477,10 10,10z" fill="#26bf08"></path><path d="M336,126h-160c-5.523,0 -10,4.477 -10,10c0,5.523 4.477,10 10,10h160c5.522,0 10,-4.477 10,-10c0,-5.523 -4.478,-10 -10,-10z" fill="#26bf08"></path><path d="M336,166h-160c-5.523,0 -10,4.477 -10,10c0,5.523 4.477,10 10,10h160c5.522,0 10,-4.477 10,-10c0,-5.523 -4.478,-10 -10,-10z" fill="#26bf08"></path><g fill="#26bf08"><path d="M101,386h-15c-5.522,0 -10,-4.478 -10,-10v-90c0,-5.522 4.478,-10 10,-10h15c30.327,0 55,24.673 55,55c0,30.327 -24.673,55 -55,55zM96,366h5c19.299,0 35,-15.701 35,-35c0,-19.299 -15.701,-35 -35,-35h-5z"></path><path d="M201,386c-19.299,0 -35,-15.701 -35,-35v-40c0,-19.299 15.701,-35 35,-35c19.299,0 35,15.701 35,35v40c0,19.299 -15.701,35 -35,35zM201,296c-8.271,0 -15,6.728 -15,15v40c0,8.272 6.729,15 15,15c8.271,0 15,-6.728 15,-15v-40c0,-8.272 -6.729,-15 -15,-15z"></path><path d="M301,386c-30.327,0 -55,-24.673 -55,-55c0,-30.327 24.673,-55 55,-55c5.522,0 10,4.478 10,10c0,5.522 -4.478,10 -10,10c-19.299,0 -35,15.701 -35,35c0,19.299 15.701,35 35,35c5.522,0 10,4.478 10,10c0,5.522 -4.478,10 -10,10z"></path><path d="M376.006,386.003c-3.832,0 -7.487,-2.215 -9.144,-5.941l-40,-90c-2.243,-5.047 0.029,-10.957 5.076,-13.199c5.052,-2.244 10.957,0.031 13.199,5.076l40,90c2.243,5.047 -0.029,10.957 -5.076,13.199c-1.32,0.587 -2.699,0.865 -4.055,0.865z"></path><path d="M335.994,386.003c-1.356,0 -2.735,-0.278 -4.056,-0.865c-5.047,-2.242 -7.319,-8.152 -5.076,-13.199l40,-90c2.242,-5.046 8.148,-7.322 13.199,-5.076c5.047,2.242 7.319,8.152 5.076,13.199l-40,90c-1.656,3.726 -5.312,5.941 -9.143,5.941z"></path></g></g></g><g fill="#26bf08" fill-rule="nonzero" stroke="none" stroke-width="1" stroke-linecap="butt" stroke-linejoin="miter" stroke-miterlimit="10" stroke-dasharray="" stroke-dashoffset="0" font-family="none" font-weight="none" font-size="none" text-anchor="none" style="mix-blend-mode: normal"><g><path d="M174.94,95.52v20.26h-4.18l-8.13,-13.33v13.33h-4.17v-20.26h4.17l8.14,13.36v-13.36zM195.07,95.52v20.26h-4.17v-8.68h-8.14v8.68h-4.18v-20.26h4.18v8.21h8.14v-8.21zM198.72,95.52h5.45l5.21,14.69l5.17,-14.69h5.49v20.26h-4.19v-5.54l0.42,-9.56l-5.47,15.1h-2.87l-5.45,-15.08l0.41,9.54v5.54h-4.17z"></path></g></g></svg>
